<svg xmlns="http://www.w3.org/2000/svg" width="32" height="32" viewBox="0 0 32 32">
  <g id="BehanceWhite" transform="translate(0 0)">
    <path id="Behance" d="M13.321,50.643c0,1.379-1,1.814-2.229,1.814H7.871V48.679h3.286c1.329.007,2.164.557,2.164,1.964Zm-.55-5.879c0-1.264-.979-1.564-2.064-1.564H7.879v3.2h3.05C12.007,46.4,12.771,45.929,12.771,44.764Zm9.45,1.657a2.129,2.129,0,0,0-2.264,2.121H24.4A2.036,2.036,0,0,0,22.221,46.421ZM32,35.429V60.571A3.429,3.429,0,0,1,28.571,64H3.429A3.429,3.429,0,0,1,0,60.571V35.429A3.429,3.429,0,0,1,3.429,32H28.571A3.429,3.429,0,0,1,32,35.429Zm-12.593,7.5h5.557v-1.35H19.407Zm-3.071,7.879a3.551,3.551,0,0,0-2.5-3.686,2.666,2.666,0,0,0,1.871-2.643c0-2.729-2.036-3.393-4.386-3.393H4.857V54.8h6.65C14,54.786,16.336,53.593,16.336,50.807ZM27.143,49.75c0-2.936-1.721-5.386-4.829-5.386a4.985,4.985,0,0,0-5.079,5.257,4.839,4.839,0,0,0,5.079,5.214,4.429,4.429,0,0,0,4.65-3.343H24.557A2.259,2.259,0,0,1,22.4,52.786a2.241,2.241,0,0,1-2.436-2.521h7.157c.007-.164.021-.343.021-.514Z" transform="translate(0 -32)" fill="#fff"/>
  </g>
</svg>
