<svg id="CodepenBlack" xmlns="http://www.w3.org/2000/svg" width="32" height="32" viewBox="0 0 32 32">
  <path id="Codepen" d="M31.393,9.981,16.768.231a1.389,1.389,0,0,0-1.536,0L.607,9.981A1.4,1.4,0,0,0,0,11.124v9.75a1.4,1.4,0,0,0,.607,1.143l14.625,9.751a1.389,1.389,0,0,0,1.536,0l14.625-9.751A1.4,1.4,0,0,0,32,20.874v-9.75A1.4,1.4,0,0,0,31.393,9.981ZM17.375,3.946l10.768,7.179-4.8,3.214-5.964-3.982Zm-2.75,0v6.411L8.661,14.339l-4.8-3.214ZM2.75,13.7,6.2,16,2.75,18.3ZM14.625,28.053,3.857,20.874l4.8-3.214,5.964,3.982ZM16,19.249,11.143,16,16,12.749,20.857,16Zm1.375,8.8V21.642l5.964-3.982,4.8,3.214ZM29.25,18.3,25.8,16l3.446-2.3V18.3Z" transform="translate(32 32) rotate(-180)" fill="#0d0d0d"/>
</svg>
