<svg xmlns="http://www.w3.org/2000/svg" width="32" height="32" viewBox="0 0 32 32">
  <path id="Dribbble" d="M24,8A16,16,0,1,0,40,24,16.018,16.018,0,0,0,24,8Zm10.579,7.378a13.6,13.6,0,0,1,3.086,8.513,31.938,31.938,0,0,0-9.516-.44c-.371-.906-.721-1.7-1.2-2.685A18.2,18.2,0,0,0,34.579,15.378ZM33.059,13.8c-.246.35-2.3,3.115-7.163,4.937a72.946,72.946,0,0,0-5.1-8A13.631,13.631,0,0,1,33.059,13.8ZM18.19,11.653a87.2,87.2,0,0,1,5.067,7.9,50.976,50.976,0,0,1-12.634,1.665A13.716,13.716,0,0,1,18.19,11.653ZM10.334,24.021c0-.14,0-.279.007-.418a50.413,50.413,0,0,0,14.046-1.945c.391.766.765,1.543,1.108,2.319a21.169,21.169,0,0,0-11.647,9.181A13.612,13.612,0,0,1,10.334,24.021ZM15.611,34.8c1.428-2.918,5.3-6.685,10.812-8.565A56.807,56.807,0,0,1,29.338,36.6,13.639,13.639,0,0,1,15.611,34.8Zm16.025.548a58.986,58.986,0,0,0-2.655-9.744,20.059,20.059,0,0,1,8.513.584A13.69,13.69,0,0,1,31.636,35.35Z" transform="translate(-8 -8)" fill="#fff"/>
</svg>
