<svg id="FiverrBlack" xmlns="http://www.w3.org/2000/svg" width="32" height="32" viewBox="0 0 32 32">
  <path id="Subtraction_1" data-name="Subtraction 1" d="M27.76,32H4.24A4.244,4.244,0,0,1,0,27.76V4.239A4.244,4.244,0,0,1,4.24,0H27.76A4.244,4.244,0,0,1,32,4.239V27.76A4.244,4.244,0,0,1,27.76,32ZM16.8,21.2V24.45h7.586V21.2H22.217V12.53H13.547v-.542a1.628,1.628,0,0,1,1.625-1.626H16.8V7.111H15.172A4.883,4.883,0,0,0,10.3,11.988v.542H8.128v3.251H10.3V21.2H8.128V24.45h7.586V21.2H13.547V15.781H19V21.2ZM20.446,7.111A1.355,1.355,0,1,0,21.8,8.465,1.356,1.356,0,0,0,20.446,7.111Z" fill="#0d0d0d"/>
</svg>
