<svg xmlns="http://www.w3.org/2000/svg" width="32" height="31.2" viewBox="0 0 32 31.2">
  <path id="Github" d="M10.7,33.123c0,.129-.148.232-.335.232-.213.019-.361-.084-.361-.232,0-.129.148-.232.335-.232C10.535,32.871,10.7,32.974,10.7,33.123ZM8.7,32.832c-.045.129.084.277.277.316a.3.3,0,0,0,.4-.129c.039-.129-.084-.277-.277-.335A.331.331,0,0,0,8.7,32.832Zm2.852-.11c-.187.045-.316.168-.3.316.019.129.187.213.381.168s.316-.168.3-.3S11.735,32.7,11.548,32.723ZM15.794,8A15.47,15.47,0,0,0,0,23.742,16.175,16.175,0,0,0,10.935,39.174c.826.148,1.116-.361,1.116-.781,0-.4-.019-2.606-.019-3.961,0,0-4.516.968-5.465-1.923,0,0-.735-1.877-1.794-2.361,0,0-1.477-1.013.1-.994a3.406,3.406,0,0,1,2.49,1.665,3.41,3.41,0,0,0,4.7,1.348A3.586,3.586,0,0,1,13.1,29.994c-3.606-.4-7.245-.923-7.245-7.129a4.89,4.89,0,0,1,1.523-3.8,6.1,6.1,0,0,1,.168-4.381C8.9,14.265,12,16.426,12,16.426a15.241,15.241,0,0,1,8.1,0s3.1-2.168,4.452-1.742a6.093,6.093,0,0,1,.168,4.381,5.015,5.015,0,0,1,1.665,3.8c0,6.226-3.8,6.723-7.406,7.129a3.815,3.815,0,0,1,1.1,2.994c0,2.174-.019,4.865-.019,5.394,0,.419.3.929,1.116.781A16.026,16.026,0,0,0,32,23.742C32,14.794,24.742,8,15.794,8ZM6.271,30.252c-.084.065-.065.213.045.335.1.1.252.148.335.065.084-.065.065-.213-.045-.335C6.5,30.213,6.355,30.168,6.271,30.252Zm-.7-.523c-.045.084.019.187.148.252A.192.192,0,0,0,6,29.935c.045-.084-.019-.187-.148-.252C5.723,29.645,5.619,29.664,5.574,29.729Zm2.09,2.3c-.1.084-.065.277.084.4.148.148.335.168.419.065.084-.084.045-.277-.084-.4C7.942,31.942,7.748,31.923,7.665,32.026Zm-.735-.948c-.1.065-.1.232,0,.381s.277.213.361.148a.294.294,0,0,0,0-.4C7.2,31.058,7.032,30.994,6.929,31.077Z" transform="translate(0 -8)" fill="#fff"/>
</svg>
